Pirates.Of.The.Caribbean.On.Stranger.Tides.PL.BRRip.XviD-RLF
~~~~~~~~~~~~~~~~~~~~~~~~~~~~~~~~~~~~~~~~~~~~~~~~~~~~~~~~~~~~
                                            

General:


Complete name                    : rlf-pirates.4-pl.avi
Format                           : AVI
Format/Info                      : Audio Video Interleave
File size                        : 1.38 GiB
Duration                         : 2h 9mn 
Overall bit rate                 : 1 523 Kbps
Language                         : Polish
Subs                             : None
Encoder                          : Ralf

Video:

                     
Format                           : MPEG-4 Visual
Format profile                   : Advanced Simple@L5
Format settings, BVOP            : 2
Format settings, QPel            : Yes
Format settings, GMC             : No warppoints
Format settings, Matrix          : H.263
Muxing mode                      : Packed bitstream
Codec ID                         : XVID
Duration                         : 2h 9mn
Bit rate                         : 1 357 Kbps
Width                            : 688 pixels
Height                           : 288 pixels
Display aspect ratio             : 2.35:1
Frame rate                       : 23.976 fps
Color space                      : YUV
Chroma subsampling               : 4:2:0
Bit depth                        : 8 bits
Scan type                        : Progressive
Bits/(Pixel*Frame)               : 0.286
Stream size                      : 1.23 GiB (89%)
Writing library                  : XviD 64

Audio:


Format                           : MPEG Audio
Format profile                   : Layer 3
Codec ID/Hint                    : MP3
Duration                         : 2h 9mn
Bit rate mode                    : Constant
Bit rate                         : 160 Kbps
Channel(s)                       : 2 channels
Sampling rate                    : 48.0 KHz
Stream size                      : 149 MiB (11%)
Alignment                        : Split accross interleaves
Interleave, duration             : 160 ms (3.84 video frames)


MOVIE INFO:

Ekscentryczny i nieustraszony pirat, Jack Sparrow (Johnny Depp), wraz z kapitanem 
Barbossa (Geoffrey Rush) wyruszaja w poszukiwaniu Fontanny Mlodosci. Kiedy o celu 
ich wyprawy dowiaduje sie Czarnobrody (Ian McShane), wyrusza za nimi wraz ze swoja 
corka - Angelica (Penelope Cruz).

                                
http://www.imdb.com/title/tt1298650/ 
http://www.filmweb.pl/film/Piraci+z+Karaibˇw+Na+nieznanych+wodach-2011-491118
   

NOTES:
        
Wyciolem napisy koncowe bo trwaja prawie 7 min. a potem jest jeszcze koncowka
filmu wiec i tak trza by bylo przewijac :) 


Aby osiagnac obtymalna jakosc proponuje zainstalowac XviD 1.3.1 i w trakcie
ogladania wlaczyc obcje Deblocking Y, Dering Y ewentualnie Film Effect 
roznica jest widoczna golym okiem.

                                             
SOURCE:

REFiNED 720p.BluRay.x264 / DS (THX)


SCREENS:

 
http://image.bayimg.com/caknjaada.jpg 
http://image.bayimg.com/caknkaada.jpg 
http://image.bayimg.com/caknlaada.jpg 
http://image.bayimg.com/caknmaada.jpg 
http://image.bayimg.com/caknpaada.jpg
